<?xml version="1.0" standalone="no"?>
<!DOCTYPE svg PUBLIC "-//W3C//DTD SVG 20010904//EN"
 "http://www.w3.org/TR/2001/REC-SVG-20010904/DTD/svg10.dtd">
<svg version="1.0" xmlns="http://www.w3.org/2000/svg"
 width="1280.000000pt" height="1280.000000pt" viewBox="0 0 1280.000000 1280.000000"
 preserveAspectRatio="xMidYMid meet">
<g transform="translate(0.000000,1280.000000) scale(0.100000,-0.100000)"
fill="#000000" stroke="none">
<path d="M1225 11570 l-1210 -1210 1973 -1973 c1084 -1084 1972 -1979 1972
-1987 0 -8 -888 -903 -1972 -1987 l-1973 -1973 1213 -1212 1212 -1213 1973
1973 c1084 1084 1979 1972 1987 1972 8 0 903 -888 1987 -1972 l1973 -1973
1212 1213 1213 1212 -1973 1973 c-1084 1084 -1972 1979 -1972 1987 0 8 888
903 1972 1987 l1973 1973 -1213 1212 -1212 1213 -1973 -1973 c-1084 -1084
-1979 -1972 -1987 -1972 -8 0 -902 887 -1985 1970 -1083 1084 -1972 1970
-1975 1970 -3 0 -550 -545 -1215 -1210z"/>
</g>
</svg>
